<svg xmlns="http://www.w3.org/2000/svg" viewBox="0 0 329.96 287.24"><defs><style>.a{fill:none;stroke:#fff;stroke-miterlimit:10;stroke-width:7.5px;}</style></defs><title>majo2</title><circle class="a" cx="143.62" cy="143.62" r="111.36"/><path class="a" d="M173,142.29c-6-22,7.59-44.86,28.49-52.7s43.39,1.75,54.37,20.54c5.8,9.91,7.93,22,4.34,33.05" transform="translate(-35.9 -10.34)"/><path class="a" d="M67.86,144c36.21-12.68,71.83-15.1,104.63-1.51,24.62,12,64.7,16.06,87.07,1.51,7.6-3.85,17-11.78,26.82-20.88" transform="translate(-35.9 -10.34)"/><line class="a" x1="40.9" y1="100.82" x2="135.22" y2="118.22"/><line class="a" x1="68.86" y1="60.86" x2="138.94" y2="101.78"/><line class="a" x1="108.46" y1="38.3" x2="150.22" y2="87.86"/><line class="a" x1="145.78" y1="33.02" x2="164.02" y2="78.86"/><line class="a" x1="181.06" y1="39.26" x2="180.58" y2="75.5"/><line class="a" x1="207.22" y1="53.78" x2="196.78" y2="79.1"/><line class="a" x1="226.9" y1="70.46" x2="210.46" y2="88.1"/><line class="a" x1="241.54" y1="88.7" x2="221.38" y2="100.94"/><line class="a" x1="225.58" y1="118.58" x2="250.39" y2="113.54"/><path class="a" d="M116.28,246.82c13.87-1.89,27.18-1.62,43.2,4.32,10.43,4.42,22,8.75,35.28,13" transform="translate(-35.9 -10.34)"/><path class="a" d="M99.36,231.16c27.63-4.68,50.28-1,76.28,9.41,13.48,4.75,33.43,9,63.85,7.65" transform="translate(-35.9 -10.34)"/><path class="a" d="M88.56,216.88c26.66-6.79,53.46-8,80.16,3.84,23.88,11,56,14.63,97.86,3.36" transform="translate(-35.9 -10.34)"/><path class="a" d="M79.44,203.44c30.65-11.81,60.15-11.39,88.56.48,36.63,14.79,75.56,16.27,113.45-5" transform="translate(-35.9 -10.34)"/><path class="a" d="M72.72,188.08c35.25-12.57,64.31-11.26,90-2.4C202,201.15,244,206.36,288.45,176.8" transform="translate(-35.9 -10.34)"/><path class="a" d="M69.84,173.68c28.41-14.28,60.26-18.29,98.64-2.88,34.26,12.06,73.23,19.39,122.8-13.22" transform="translate(-35.9 -10.34)"/><path class="a" d="M343.36,136.15,319.51,136a141.13,141.13,0,1,0-.06,36.35l23.72-.24C372.13,169.6,367.92,138.13,343.36,136.15Z" transform="translate(-35.9 -10.34)"/></svg>