<svg xmlns="http://www.w3.org/2000/svg" viewBox="0 0 330.98 288.29"><defs><style>.a{fill:none;stroke:#000;stroke-miterlimit:10;stroke-width:6px;}</style></defs><title>majo32</title><circle class="a" cx="144.14" cy="144.16" r="111.36"/><path class="a" d="M137.1,132c-6-22,7.59-44.86,28.49-52.7S209,81,220,99.79c5.8,9.91,7.93,22,4.34,33.05" transform="translate(0.52 0.54)"/><path class="a" d="M32,133.66c36.21-12.68,71.83-15.1,104.63-1.51,24.62,12,64.7,16.06,87.07,1.51,7.6-3.85,17-11.78,26.82-20.88" transform="translate(0.52 0.54)"/><line class="a" x1="41.42" y1="101.36" x2="135.74" y2="118.76"/><line class="a" x1="69.38" y1="61.4" x2="139.46" y2="102.32"/><line class="a" x1="108.98" y1="38.84" x2="150.74" y2="88.4"/><line class="a" x1="146.3" y1="33.56" x2="164.54" y2="79.4"/><line class="a" x1="181.58" y1="39.8" x2="181.1" y2="76.04"/><line class="a" x1="207.74" y1="54.32" x2="197.3" y2="79.64"/><line class="a" x1="227.42" y1="71" x2="210.98" y2="88.64"/><line class="a" x1="242.06" y1="89.24" x2="221.9" y2="101.48"/><line class="a" x1="226.1" y1="119.12" x2="250.91" y2="114.08"/><path class="a" d="M80.62,235.71h.13a62.78,62.78,0,0,1,20.13,1.2c21.81,4.82,41.62,11,62.61,16.87" transform="translate(0.52 0.54)"/><path class="a" d="M62.91,221c39.87-9.9,75.21,15.54,114.21,17.39a127.88,127.88,0,0,0,29.17-1.94" transform="translate(0.52 0.54)"/><path class="a" d="M51.63,207c24-7.81,48-6.13,71.78,1.46s46.8,15,72.08,12.58a119,119,0,0,0,38.32-10.74" transform="translate(0.52 0.54)"/><path class="a" d="M43.16,193.13C77,175.24,115,189.24,150,199.24c32,11,68,5,97.26-12.5" transform="translate(0.52 0.54)"/><path class="a" d="M37.79,178.48C63,166.24,91,164.24,118,172.24c19,6,37,13,57,15a122.79,122.79,0,0,0,78.83-22" transform="translate(0.52 0.54)"/><path class="a" d="M33.94,163.34c28.41-14.28,60.26-18.29,98.64-2.88,34.26,12.06,73.23,19.39,122.8-13.22" transform="translate(0.52 0.54)"/><path class="a" d="M307.46,125.81l-23.85-.15a141.13,141.13,0,1,0-.06,36.35l23.72-.24C336.23,159.26,332,127.79,307.46,125.81Z" transform="translate(0.52 0.54)"/></svg>