<svg xmlns="http://www.w3.org/2000/svg" version="1.1" xmlns:xlink="http://www.w3.org/1999/xlink" width="1000" height="1000"><g clip-path="url(#SvgjsClipPath1049)"><rect width="1000" height="1000" fill="#022238"></rect><g transform="matrix(3.861003861003861,0,0,3.861003861003861,0,0)"><svg xmlns="http://www.w3.org/2000/svg" version="1.1" xmlns:xlink="http://www.w3.org/1999/xlink" width="259" height="259"><svg version="1.1" id="Capa_1" xmlns="http://www.w3.org/2000/svg" xmlns:xlink="http://www.w3.org/1999/xlink" x="0px" y="0px" viewBox="0 0 259 259" style="enable-background:new 0 0 259 259;" xml:space="preserve">
<style type="text/css">
	.st0{fill:none;stroke:#FFFFFF;stroke-width:12;stroke-miterlimit:10;}
</style>
<title>majo4</title>
<circle class="st0" cx="129.5" cy="129.5" r="111.4"></circle>
<path class="st0" d="M123,117.9c-6-22,7.6-44.9,28.5-52.7s43.4,1.7,54.4,20.5c5.8,9.9,7.9,22,4.3,33"></path>
<path class="st0" d="M17.9,119.5c36.2-12.7,71.8-15.1,104.6-1.5c24.6,12,64.7,16.1,87.1,1.5c7.6-3.9,17-11.8,26.8-20.9"></path>
<line class="st0" x1="34.9" y1="67" x2="119.3" y2="98.8"></line>
<line class="st0" x1="69.5" y1="39" x2="129.9" y2="80.3"></line>
<line class="st0" x1="118.9" y1="23.1" x2="140.9" y2="67.7"></line>
<line class="st0" x1="159.4" y1="23.4" x2="159.3" y2="61.4"></line>
<line class="st0" x1="188" y1="36.6" x2="178.6" y2="63"></line>
<line class="st0" x1="209.8" y1="54.3" x2="193.3" y2="72"></line>
<line class="st0" x1="227.4" y1="73.6" x2="207.3" y2="85.8"></line>
<line class="st0" x1="211.4" y1="104.4" x2="236.3" y2="99.4"></line>
<path class="st0" d="M49.7,208.5c25.3-4.2,45.7,0.5,68.9,12.6c12.1,5.5,30,10.8,57.7,10.3"></path>
<path class="st0" d="M39.1,190.5c27.8-10.2,52.7-6,78.2,5.1c29.1,12.7,63.4,16.1,100.5,0.9"></path>
<path class="st0" d="M31.3,170.5c30.7-11.8,60.2-11.4,88.6,0.5c36.6,14.8,75.6,16.3,113.4-5"></path>
<path class="st0" d="M19.8,149.2c28.4-14.3,60.3-18.3,98.6-2.9c34.3,12.1,73.2,19.4,122.8-13.2"></path>
</svg></svg></g></g><defs><clipPath id="SvgjsClipPath1049"><rect width="1000" height="1000" x="0" y="0" rx="350" ry="350"></rect></clipPath></defs></svg>